<svg width="35" height="11" viewBox="0 0 35 11" fill="none" xmlns="http://www.w3.org/2000/svg">
<path opacity="0.85" d="M2.45117 10H4.05713V0.840332H2.43848L0.0454102 2.52246V4.02686L2.41309 2.40186H2.45117V10ZM6.12012 3.57617H7.65625C7.65625 2.64307 8.40527 1.97021 9.39551 1.97021C10.3032 1.97021 10.9062 2.57959 10.9062 3.37939C10.9062 4.06494 10.6396 4.52197 9.44629 5.69629L6.20898 8.88281V10H12.6455V8.66064H8.37354V8.62891L10.3921 6.64844C11.9917 5.07422 12.5059 4.36328 12.5059 3.27783C12.5059 1.80518 11.2617 0.65625 9.39551 0.65625C7.49121 0.65625 6.12012 1.86865 6.12012 3.57617ZM14.9497 10.0698C15.4575 10.0698 15.8574 9.66992 15.8574 9.15576C15.8574 8.64795 15.4575 8.2417 14.9497 8.2417C14.4355 8.2417 14.0356 8.64795 14.0356 9.15576C14.0356 9.66992 14.4355 10.0698 14.9497 10.0698ZM17.4697 10H19.1836L23.1001 2.20508V0.840332H16.7271V2.17969H21.4878V2.21143L17.4697 10ZM26.001 5.32178C27.2642 5.32178 28.0957 4.42041 28.0957 3.01123C28.0957 1.5957 27.2578 0.713379 26.001 0.713379C24.7441 0.713379 23.9062 1.5957 23.9062 3.01758C23.9062 4.42041 24.7378 5.32178 26.001 5.32178ZM26.5723 10L32.8438 0.840332H31.5933L25.3218 10H26.5723ZM26.001 4.36328C25.4424 4.36328 25.0615 3.88086 25.0615 3.01758C25.0615 2.1416 25.4424 1.67822 26.001 1.67822C26.5659 1.67822 26.9404 2.1416 26.9404 3.01758C26.9404 3.88086 26.5659 4.36328 26.001 4.36328ZM32.1646 10.1206C33.4277 10.1206 34.2529 9.21924 34.2529 7.81006C34.2529 6.39453 33.4214 5.51221 32.1646 5.51221C30.9077 5.51221 30.0698 6.39453 30.0698 7.81641C30.0698 9.21924 30.9014 10.1206 32.1646 10.1206ZM32.1646 9.16211C31.606 9.16211 31.2188 8.67969 31.2188 7.81641C31.2188 6.94043 31.606 6.47705 32.1646 6.47705C32.7295 6.47705 33.104 6.94043 33.104 7.81641C33.104 8.67969 32.7231 9.16211 32.1646 9.16211Z" fill="black"/>
</svg>
