<svg width="36" height="11" viewBox="0 0 36 11" fill="none" xmlns="http://www.w3.org/2000/svg">
<path opacity="0.85" d="M3.21631 5.91846H4.34619C5.48242 5.91846 6.18066 6.4834 6.18066 7.41016C6.18066 8.25439 5.43799 8.84473 4.38428 8.84473C3.29248 8.84473 2.60693 8.28613 2.53076 7.44824H0.969238C1.05176 9.07959 2.35938 10.1841 4.37158 10.1841C6.37109 10.1841 7.84375 9.09229 7.84375 7.47363C7.84375 6.19775 6.95508 5.35986 5.58398 5.2583V5.22021C6.71387 5.02344 7.47559 4.20459 7.47559 3.06836C7.47559 1.64014 6.19336 0.65625 4.39062 0.65625C2.49902 0.65625 1.23584 1.72266 1.14697 3.3667H2.67041C2.73389 2.50977 3.36865 1.95752 4.31445 1.95752C5.34277 1.95752 5.90137 2.49072 5.90137 3.29053C5.90137 4.10938 5.26025 4.68701 4.3208 4.68701H3.21631V5.91846ZM12.6553 10.1904C14.6421 10.1904 16.0767 8.85107 16.0767 6.99121C16.0767 5.25195 14.7817 3.96973 13.0425 3.96973C11.8872 3.96973 10.9478 4.56641 10.5605 5.46143H10.5288C10.5161 3.25244 11.3223 1.98291 12.6934 1.98291C13.4805 1.98291 14.1216 2.43359 14.3311 3.12549H15.9561C15.6831 1.64648 14.3818 0.649902 12.7061 0.649902C10.3828 0.649902 8.96729 2.47168 8.96729 5.5249C8.96729 6.66113 9.18945 7.61963 9.62109 8.36865C10.2368 9.54297 11.3223 10.1904 12.6553 10.1904ZM12.6426 8.85107C11.6206 8.85107 10.8208 8.04492 10.8208 7.02295C10.8208 6.00732 11.6016 5.25195 12.6553 5.25195C13.7026 5.25195 14.4644 6.00732 14.4644 7.04199C14.4644 8.05127 13.6582 8.85107 12.6426 8.85107ZM18.2349 10.0698C18.7427 10.0698 19.1426 9.66992 19.1426 9.15576C19.1426 8.64795 18.7427 8.2417 18.2349 8.2417C17.7207 8.2417 17.3208 8.64795 17.3208 9.15576C17.3208 9.66992 17.7207 10.0698 18.2349 10.0698ZM22.2783 10H23.8843V0.840332H22.2656L19.8726 2.52246V4.06494L22.2402 2.40186H22.2783V10ZM29.7114 3.02393C29.7114 1.5957 28.918 0.687988 27.6802 0.687988C26.4487 0.687988 25.6553 1.5957 25.6553 3.02393C25.6553 4.4585 26.4487 5.36621 27.6802 5.36621C28.918 5.36621 29.7114 4.4585 29.7114 3.02393ZM27.6802 4.36963C27.2168 4.36963 26.9312 3.86182 26.9312 3.02393C26.9312 2.17969 27.2168 1.67188 27.6802 1.67188C28.1499 1.67188 28.4355 2.17969 28.4355 3.02393C28.4355 3.86182 28.1499 4.36963 27.6802 4.36963ZM27.8071 10L31.0381 5.56934L34.4912 0.840332H33.1201L29.9717 5.14404L26.4233 10H27.8071ZM35.2656 7.77832C35.2656 6.3501 34.4722 5.43604 33.2344 5.43604C32.0029 5.43604 31.2095 6.3501 31.2095 7.77832C31.2095 9.20654 32.0029 10.1143 33.2344 10.1143C34.4722 10.1143 35.2656 9.20654 35.2656 7.77832ZM33.2344 9.12402C32.771 9.12402 32.4854 8.60986 32.4854 7.77197C32.4854 6.93408 32.771 6.41992 33.2344 6.41992C33.7041 6.41992 33.9897 6.93408 33.9897 7.77197C33.9897 8.60986 33.7041 9.12402 33.2344 9.12402Z" fill="black"/>
</svg>
