<svg width="36" height="11" viewBox="0 0 36 11" fill="none" xmlns="http://www.w3.org/2000/svg">
<path opacity="0.85" d="M4.20654 10.1841C6.23779 10.1841 7.64062 8.87646 7.64062 6.97217C7.64062 5.18848 6.37744 3.8999 4.62549 3.8999C3.71777 3.8999 2.96875 4.26807 2.58789 4.8584H2.5498L2.78467 2.17969H7.10107V0.840332H1.48975L1.01367 6.05811H2.49902C2.83545 5.48682 3.48291 5.14404 4.23193 5.14404C5.30469 5.14404 6.06006 5.91846 6.06006 7.0166C6.06006 8.0957 5.31104 8.85742 4.21924 8.85742C3.25439 8.85742 2.51172 8.27344 2.41016 7.42285H0.874023C0.943848 9.04785 2.31494 10.1841 4.20654 10.1841ZM11.062 10H12.668V0.840332H11.0493L8.65625 2.52246V4.06494L11.0239 2.40186H11.062V10ZM15.6768 10.0698C16.1846 10.0698 16.5845 9.66992 16.5845 9.15576C16.5845 8.64795 16.1846 8.2417 15.6768 8.2417C15.1626 8.2417 14.7627 8.64795 14.7627 9.15576C14.7627 9.66992 15.1626 10.0698 15.6768 10.0698ZM21.542 10.1841C23.6494 10.1841 25.1157 9.09229 25.1157 7.52441C25.1157 6.34375 24.2715 5.41064 23.0273 5.16943V5.1377C24.0684 4.8584 24.7412 4.05859 24.7412 3.07471C24.7412 1.67188 23.4146 0.65625 21.542 0.65625C19.6758 0.65625 18.3364 1.67822 18.3364 3.06836C18.3364 4.06494 19.0156 4.87109 20.0566 5.1377V5.16943C18.8125 5.4043 17.9746 6.3374 17.9746 7.52441C17.9746 9.08594 19.4219 10.1841 21.542 10.1841ZM21.542 8.93359C20.4438 8.93359 19.6694 8.28613 19.6694 7.40381C19.6694 6.51514 20.4438 5.86768 21.542 5.86768C22.6401 5.86768 23.4146 6.50879 23.4146 7.40381C23.4146 8.28613 22.6401 8.93359 21.542 8.93359ZM21.542 4.61719C20.6089 4.61719 19.9551 4.0459 19.9551 3.25879C19.9551 2.46533 20.6089 1.89404 21.542 1.89404C22.4688 1.89404 23.1226 2.46533 23.1226 3.25879C23.1226 4.0459 22.4624 4.61719 21.542 4.61719ZM30.0098 3.02393C30.0098 1.5957 29.2163 0.687988 27.9785 0.687988C26.7471 0.687988 25.9536 1.5957 25.9536 3.02393C25.9536 4.4585 26.7471 5.36621 27.9785 5.36621C29.2163 5.36621 30.0098 4.4585 30.0098 3.02393ZM27.9785 4.36963C27.5151 4.36963 27.2295 3.86182 27.2295 3.02393C27.2295 2.17969 27.5151 1.67188 27.9785 1.67188C28.4482 1.67188 28.7339 2.17969 28.7339 3.02393C28.7339 3.86182 28.4482 4.36963 27.9785 4.36963ZM28.1055 10L31.3364 5.56934L34.7896 0.840332H33.4185L30.27 5.14404L26.7217 10H28.1055ZM35.564 7.77832C35.564 6.3501 34.7705 5.43604 33.5327 5.43604C32.3013 5.43604 31.5078 6.3501 31.5078 7.77832C31.5078 9.20654 32.3013 10.1143 33.5327 10.1143C34.7705 10.1143 35.564 9.20654 35.564 7.77832ZM33.5327 9.12402C33.0693 9.12402 32.7837 8.60986 32.7837 7.77197C32.7837 6.93408 33.0693 6.41992 33.5327 6.41992C34.0024 6.41992 34.2881 6.93408 34.2881 7.77197C34.2881 8.60986 34.0024 9.12402 33.5327 9.12402Z" fill="black"/>
</svg>
