<svg width="37" height="11" viewBox="0 0 37 11" fill="none" xmlns="http://www.w3.org/2000/svg">
<path opacity="0.85" d="M4.69385 10.1841C6.67432 10.1841 8.11523 8.84473 8.11523 6.98486C8.11523 5.25195 6.87109 3.98242 5.11279 3.98242C3.86865 3.98242 2.95459 4.61719 2.59277 5.46143H2.56104C2.57373 3.29688 3.31006 1.98291 4.71289 1.98291C5.53809 1.98291 6.13477 2.39551 6.36963 3.11279H7.99463C7.72803 1.64014 6.42041 0.649902 4.71924 0.649902C2.38965 0.649902 0.993164 2.47168 0.993164 5.5249C0.993164 8.7749 2.68164 10.1841 4.69385 10.1841ZM4.66846 8.85107C3.64648 8.85107 2.84033 8.04492 2.84033 7.0166C2.84033 5.99463 3.63379 5.24561 4.6875 5.24561C5.74121 5.24561 6.50928 5.99463 6.50293 7.04834C6.50293 8.05127 5.69043 8.85107 4.66846 8.85107ZM11.5938 10H13.1997V0.840332H11.5811L9.18799 2.52246V4.02686L11.5557 2.40186H11.5938V10ZM16.2085 10.0698C16.7163 10.0698 17.1162 9.66992 17.1162 9.15576C17.1162 8.64795 16.7163 8.2417 16.2085 8.2417C15.6943 8.2417 15.2944 8.64795 15.2944 9.15576C15.2944 9.66992 15.6943 10.0698 16.2085 10.0698ZM18.5508 3.57617H20.0869C20.0869 2.64307 20.8359 1.97021 21.8262 1.97021C22.7339 1.97021 23.3369 2.57959 23.3369 3.37939C23.3369 4.06494 23.0703 4.52197 21.877 5.69629L18.6396 8.88281V10H25.0762V8.66064H20.8042V8.62891L22.8228 6.64844C24.4224 5.07422 24.9365 4.36328 24.9365 3.27783C24.9365 1.80518 23.6924 0.65625 21.8262 0.65625C19.9219 0.65625 18.5508 1.86865 18.5508 3.57617ZM28.0088 5.32178C29.272 5.32178 30.1035 4.42041 30.1035 3.01123C30.1035 1.5957 29.2656 0.713379 28.0088 0.713379C26.752 0.713379 25.9141 1.5957 25.9141 3.01758C25.9141 4.42041 26.7456 5.32178 28.0088 5.32178ZM28.5801 10L34.8516 0.840332H33.6011L27.3296 10H28.5801ZM28.0088 4.36328C27.4502 4.36328 27.0693 3.88086 27.0693 3.01758C27.0693 2.1416 27.4502 1.67822 28.0088 1.67822C28.5737 1.67822 28.9482 2.1416 28.9482 3.01758C28.9482 3.88086 28.5737 4.36328 28.0088 4.36328ZM34.1724 10.1206C35.4355 10.1206 36.2607 9.21924 36.2607 7.81006C36.2607 6.39453 35.4292 5.51221 34.1724 5.51221C32.9155 5.51221 32.0776 6.39453 32.0776 7.81641C32.0776 9.21924 32.9092 10.1206 34.1724 10.1206ZM34.1724 9.16211C33.6138 9.16211 33.2266 8.67969 33.2266 7.81641C33.2266 6.94043 33.6138 6.47705 34.1724 6.47705C34.7373 6.47705 35.1118 6.94043 35.1118 7.81641C35.1118 8.67969 34.731 9.16211 34.1724 9.16211Z" fill="black"/>
</svg>
