<svg width="16" height="17" viewBox="0 0 16 17" fill="none" xmlns="http://www.w3.org/2000/svg">
<path d="M7.59375 0.550781L7.34766 0.796875C7.17188 0.972656 7.17188 1.21875 7.34766 1.39453L13.6055 7.65234H0.421875C0.175781 7.65234 0 7.86328 0 8.07422V8.42578C0 8.67188 0.175781 8.84766 0.421875 8.84766H13.6055L7.34766 15.1406C7.17188 15.3164 7.17188 15.5625 7.34766 15.7383L7.59375 15.9844C7.76953 16.1602 8.01562 16.1602 8.19141 15.9844L15.6094 8.56641C15.7852 8.39062 15.7852 8.14453 15.6094 7.96875L8.19141 0.550781C8.01562 0.375 7.76953 0.375 7.59375 0.550781Z" fill="#8895A3"/>
</svg>
