<svg width="90" height="32" viewBox="0 0 90 32" fill="none" xmlns="http://www.w3.org/2000/svg">
<rect width="90" height="32" rx="3" fill="#E4E7EA"/>
<path d="M24.5156 15.9688C24.6523 15.8594 24.6523 15.6406 24.5156 15.5312L24.3242 15.3125C24.1875 15.2031 23.9961 15.2031 23.8594 15.3125L20.7148 18.4844V9.95312C20.7148 9.78906 20.5508 9.625 20.3867 9.625H20.1133C19.9219 9.625 19.7852 9.78906 19.7852 9.95312V18.4844L16.6133 15.3125C16.4766 15.2031 16.2852 15.2031 16.1484 15.3125L15.957 15.5039C15.8203 15.6406 15.8203 15.8594 15.957 15.9688L20.0039 20.043C20.1406 20.1797 20.332 20.1797 20.4688 20.043L24.5156 15.9688ZM25.5 21.5469V21.3281C25.5 21.1641 25.3359 21 25.1719 21H15.3281C15.1367 21 15 21.1641 15 21.3281V21.5469C15 21.7383 15.1367 21.875 15.3281 21.875H25.1719C25.3359 21.875 25.5 21.7383 25.5 21.5469Z" fill="#242E39"/>
<path d="M41.4492 21H36.2759V11.7197H41.4492V12.6782H37.355V15.668H41.2017V16.6201H37.355V20.0352H41.4492V21ZM45.0293 17.439L42.6108 14.043H43.8105L45.645 16.709L47.4731 14.043H48.6602L46.2417 17.439L48.7871 21H47.5938L45.645 18.1816L43.6772 21H42.4839L45.0293 17.439ZM53.4082 21.127C52.9554 21.127 52.5407 21.0444 52.1641 20.8794C51.7917 20.7101 51.4785 20.452 51.2246 20.105H51.1484C51.1992 20.5112 51.2246 20.8963 51.2246 21.2603V24.123H50.1709V14.043H51.0278L51.1738 14.9951H51.2246C51.4954 14.6143 51.8107 14.3392 52.1704 14.1699C52.5301 14.0007 52.9427 13.916 53.4082 13.916C54.3307 13.916 55.0417 14.2313 55.541 14.8618C56.0446 15.4924 56.2964 16.3768 56.2964 17.5151C56.2964 18.6577 56.0404 19.5464 55.5283 20.1812C55.0205 20.8117 54.3138 21.127 53.4082 21.127ZM53.2559 14.811C52.5449 14.811 52.0308 15.0078 51.7134 15.4014C51.396 15.7949 51.2331 16.4212 51.2246 17.2803V17.5151C51.2246 18.4927 51.3875 19.193 51.7134 19.6162C52.0392 20.0352 52.5618 20.2446 53.2812 20.2446C53.8822 20.2446 54.3519 20.0013 54.6904 19.5146C55.0332 19.028 55.2046 18.3573 55.2046 17.5024C55.2046 16.6349 55.0332 15.9705 54.6904 15.5093C54.3519 15.0438 53.8737 14.811 53.2559 14.811ZM64.1484 17.5151C64.1484 18.6493 63.8628 19.5358 63.2915 20.1748C62.7202 20.8096 61.931 21.127 60.9238 21.127C60.3018 21.127 59.7495 20.981 59.2671 20.689C58.7847 20.397 58.4123 19.978 58.1499 19.4321C57.8875 18.8862 57.7563 18.2472 57.7563 17.5151C57.7563 16.381 58.0399 15.4987 58.6069 14.8682C59.174 14.2334 59.9611 13.916 60.9683 13.916C61.9416 13.916 62.7139 14.2397 63.2852 14.8872C63.8607 15.5347 64.1484 16.4106 64.1484 17.5151ZM58.8481 17.5151C58.8481 18.4038 59.0259 19.0809 59.3813 19.5464C59.7368 20.0119 60.2594 20.2446 60.9492 20.2446C61.639 20.2446 62.1616 20.014 62.5171 19.5527C62.8768 19.0872 63.0566 18.408 63.0566 17.5151C63.0566 16.6307 62.8768 15.96 62.5171 15.5029C62.1616 15.0417 61.6348 14.811 60.9365 14.811C60.2467 14.811 59.7262 15.0374 59.375 15.4902C59.0238 15.943 58.8481 16.618 58.8481 17.5151ZM69.1758 13.916C69.4847 13.916 69.7619 13.9414 70.0073 13.9922L69.8613 14.9697C69.5736 14.9062 69.3197 14.8745 69.0996 14.8745C68.5368 14.8745 68.0544 15.103 67.6523 15.5601C67.2546 16.0171 67.0557 16.5863 67.0557 17.2676V21H66.002V14.043H66.8716L66.9922 15.3315H67.043C67.3011 14.8787 67.6121 14.5296 67.9761 14.2842C68.34 14.0387 68.7399 13.916 69.1758 13.916ZM73.5557 20.2573C73.7419 20.2573 73.9217 20.2446 74.0952 20.2192C74.2687 20.1896 74.4062 20.16 74.5078 20.1304V20.9365C74.3936 20.9915 74.2243 21.036 74 21.0698C73.7799 21.1079 73.5811 21.127 73.4033 21.127C72.0576 21.127 71.3848 20.4181 71.3848 19.0005V14.8618H70.3882V14.354L71.3848 13.916L71.8291 12.4307H72.4385V14.043H74.457V14.8618H72.4385V18.9561C72.4385 19.375 72.5379 19.6966 72.7368 19.9209C72.9357 20.1452 73.2087 20.2573 73.5557 20.2573Z" fill="#242E39"/>
</svg>
