<svg width="43" height="23" viewBox="0 0 43 23" fill="none" xmlns="http://www.w3.org/2000/svg">
<path d="M1.71901 10.8432V10.5624L2.96266 10.0275V0.960887L1.71901 0.439357V0.145161H4.20631L9.96988 8.22218V0.960887L8.72623 0.439357V0.145161H11.5746V0.439357L10.3042 0.960887V10.8432H9.96988L3.29698 1.46904V10.0275L4.58074 10.5624V10.8432H1.71901ZM16.0738 10.9769C15.4319 10.9769 14.848 10.8298 14.322 10.5356C13.796 10.2325 13.377 9.80906 13.065 9.26524C12.7619 8.71251 12.6103 8.084 12.6103 7.37971C12.6103 6.67542 12.7619 6.05137 13.065 5.50755C13.377 4.96374 13.796 4.54473 14.322 4.25053C14.848 3.94742 15.4319 3.79587 16.0738 3.79587C16.7157 3.79587 17.2996 3.94742 17.8256 4.25053C18.3516 4.54473 18.7662 4.96374 19.0693 5.50755C19.3813 6.05137 19.5373 6.67542 19.5373 7.37971C19.5373 8.084 19.3813 8.71251 19.0693 9.26524C18.7662 9.80906 18.3516 10.2325 17.8256 10.5356C17.2996 10.8298 16.7157 10.9769 16.0738 10.9769ZM16.0738 10.6827C16.7335 10.6827 17.2283 10.442 17.5582 9.96061C17.8969 9.4792 18.0663 8.84178 18.0663 8.04834V6.71108C18.0663 5.91764 17.8969 5.28468 17.5582 4.81218C17.2283 4.33077 16.7335 4.09006 16.0738 4.09006C15.4141 4.09006 14.9149 4.33077 14.5761 4.81218C14.2462 5.28468 14.0813 5.91764 14.0813 6.71108V8.04834C14.0813 8.84178 14.2462 9.4792 14.5761 9.96061C14.9149 10.442 15.4141 10.6827 16.0738 10.6827ZM20.4669 10.5757L21.403 10.442V4.3174L20.4669 4.18367V3.91622H22.7402V4.94591C23.3019 4.17921 23.9349 3.79587 24.6391 3.79587C24.9779 3.79587 25.2766 3.88502 25.5351 4.06332C25.7936 4.2327 25.9229 4.47787 25.9229 4.79881C25.9229 5.0306 25.8471 5.22673 25.6956 5.3872C25.544 5.53876 25.3434 5.61453 25.0938 5.61453C24.8085 5.61453 24.5767 5.5031 24.3984 5.28022C24.4965 5.15541 24.5455 5.02168 24.5455 4.87904C24.5455 4.72749 24.492 4.60713 24.3851 4.51798C24.287 4.41992 24.1533 4.37089 23.9839 4.37089C23.7967 4.37089 23.605 4.46004 23.4089 4.63834C23.2127 4.80772 22.9899 5.07517 22.7402 5.44069V10.442L23.81 10.5757V10.8432H20.4669V10.5757ZM29.1508 10.9769C28.5624 10.9769 28.0899 10.8298 27.7333 10.5356C27.3856 10.2414 27.2118 9.7734 27.2118 9.13151V4.3174L26.2623 4.18367V3.91622H27.2118V2.8063L28.5491 2.47198V3.91622H30.2875V4.18367L28.5491 4.3174V9.10477C28.5491 10.0498 28.8878 10.5223 29.5654 10.5223C29.708 10.5223 29.8417 10.5 29.9665 10.4554C30.1003 10.4108 30.2028 10.3662 30.2741 10.3217C30.3543 10.2771 30.4034 10.2459 30.4212 10.2281L30.5951 10.442C30.1939 10.7986 29.7125 10.9769 29.1508 10.9769ZM30.9385 10.5757L31.8745 10.442V0.546337L30.9385 0.412612V0.145161H33.2118V5.36046C33.5416 4.87904 33.9294 4.50015 34.3752 4.22379C34.8209 3.93851 35.3024 3.79587 35.8194 3.79587C36.4613 3.79587 36.965 3.95634 37.3305 4.27728C37.705 4.59822 37.8922 5.07517 37.8922 5.70814V10.442L38.8283 10.5757V10.8432H35.7526V10.5757L36.5549 10.442V5.73489C36.5549 5.2713 36.4613 4.9147 36.2741 4.66508C36.0869 4.40655 35.7971 4.27728 35.4049 4.27728C34.9948 4.27728 34.5981 4.42883 34.2147 4.73195C33.8403 5.02614 33.506 5.39166 33.2118 5.82849V10.442L34.0141 10.5757V10.8432H30.9385V10.5757Z" fill="black"/>
<path d="M0.555812 22.5624L1.78609 22.3618V12.6266L0.555812 12.4394V12.1452H4.75479C6.07422 12.1452 7.05487 12.426 7.69675 12.9876C8.33864 13.5493 8.65958 14.3605 8.65958 15.4214C8.65958 16.4823 8.33864 17.2936 7.69675 17.8552C7.05487 18.4169 6.07422 18.6977 4.75479 18.6977H3.25707V22.3618L4.48734 22.5624V22.8432H0.555812V22.5624ZM4.56758 18.3768C6.21686 18.3768 7.0415 17.4808 7.0415 15.6889V15.154C7.0415 13.371 6.21686 12.4795 4.56758 12.4795H3.25707V18.3768H4.56758ZM11.4686 22.9769C10.8981 22.9769 10.43 22.8298 10.0645 22.5356C9.69901 22.2325 9.51626 21.7868 9.51626 21.1984C9.51626 20.3604 9.8684 19.7675 10.5727 19.4198C11.277 19.0632 12.0927 18.8849 13.0199 18.8849H13.9158V17.8552C13.9158 17.3917 13.8623 17.0351 13.7554 16.7854C13.6573 16.5269 13.5013 16.3486 13.2873 16.2505C13.0734 16.1436 12.7836 16.0901 12.4181 16.0901C11.9991 16.0901 11.6871 16.1748 11.482 16.3441C11.277 16.5046 11.1745 16.723 11.1745 16.9994C11.1745 17.2579 11.2993 17.4273 11.5489 17.5076C11.5489 17.7304 11.4642 17.9266 11.2948 18.0959C11.1254 18.2653 10.9248 18.35 10.693 18.35C10.4434 18.35 10.2428 18.2832 10.0913 18.1494C9.93972 18.0068 9.86394 17.7928 9.86394 17.5076C9.86394 16.9905 10.1225 16.5759 10.6395 16.2639C11.1566 15.9519 11.803 15.7959 12.5786 15.7959C14.3616 15.7959 15.2531 16.5715 15.2531 18.1227V21.9472C15.2531 22.1434 15.2932 22.2949 15.3734 22.4019C15.4626 22.5 15.5874 22.549 15.7479 22.549C15.8994 22.549 16.0198 22.5 16.1089 22.4019C16.1981 22.2949 16.2426 22.1523 16.2426 21.974H16.5235C16.5235 22.286 16.4209 22.5312 16.2159 22.7095C16.0198 22.8878 15.7434 22.9769 15.3868 22.9769C14.9767 22.9769 14.629 22.861 14.3437 22.6292C14.0674 22.3885 13.9247 22.0186 13.9158 21.5193C13.7019 21.974 13.372 22.3306 12.9263 22.5891C12.4894 22.8477 12.0035 22.9769 11.4686 22.9769ZM12.2041 22.3885C12.4448 22.3885 12.69 22.3172 12.9396 22.1746C13.1982 22.0319 13.4166 21.8269 13.5949 21.5594C13.7732 21.2831 13.8802 20.9532 13.9158 20.5699V19.1791H13.0199C12.2888 19.1791 11.7406 19.3441 11.375 19.6739C11.0184 19.9948 10.8401 20.4495 10.8401 21.0379C10.8401 21.5282 10.956 21.8759 11.1878 22.081C11.4196 22.286 11.7584 22.3885 12.2041 22.3885ZM20.527 22.9769C19.8851 22.9769 19.3012 22.8298 18.7752 22.5356C18.2492 22.2325 17.8302 21.8091 17.5182 21.2652C17.215 20.7125 17.0635 20.084 17.0635 19.3797C17.0635 18.6398 17.224 17.9979 17.5449 17.4541C17.8748 16.9102 18.3027 16.5002 18.8287 16.2238C19.3547 15.9385 19.9208 15.7959 20.527 15.7959C21.0351 15.7959 21.4987 15.885 21.9177 16.0633C22.3367 16.2327 22.6666 16.4734 22.9073 16.7854C23.1569 17.0975 23.2817 17.4496 23.2817 17.8419C23.2817 18.1361 23.206 18.3634 23.0544 18.5239C22.9028 18.6754 22.7023 18.7512 22.4526 18.7512C22.2119 18.7512 22.0113 18.671 21.8509 18.5105C21.6904 18.35 21.6102 18.1494 21.6102 17.9087C21.7439 17.8196 21.8375 17.7215 21.891 17.6145C21.9445 17.5076 21.9712 17.3738 21.9712 17.2134C21.9712 16.8835 21.8375 16.616 21.57 16.411C21.3115 16.197 20.9638 16.0901 20.527 16.0901C19.8851 16.0901 19.3903 16.3219 19.0426 16.7854C18.7039 17.2401 18.5345 17.882 18.5345 18.7111V20.0483C18.5345 20.8418 18.6994 21.4792 19.0293 21.9606C19.368 22.442 19.8673 22.6827 20.527 22.6827C21.1332 22.6827 21.6592 22.5133 22.1049 22.1746C22.5596 21.8269 22.8404 21.3722 22.9474 20.8106H23.255C23.1302 21.4703 22.8181 21.9963 22.3189 22.3885C21.8286 22.7808 21.2313 22.9769 20.527 22.9769ZM25.5935 14.365C25.3439 14.365 25.1299 14.2803 24.9516 14.1109C24.7733 13.9326 24.6842 13.7187 24.6842 13.469C24.6842 13.2194 24.7689 13.0099 24.9383 12.8405C25.1166 12.6711 25.335 12.5865 25.5935 12.5865C25.8342 12.5865 26.0393 12.6711 26.2086 12.8405C26.378 13.0099 26.4627 13.2194 26.4627 13.469C26.4627 13.7187 26.378 13.9326 26.2086 14.1109C26.0393 14.2803 25.8342 14.365 25.5935 14.365ZM24.176 22.8432V22.5757L25.1121 22.442V16.3308L24.176 16.197V15.9296H26.4494V22.442L27.3854 22.5757V22.8432H24.176ZM28.0281 22.5757L28.9642 22.442V16.3174L28.0281 16.1837V15.9162H28.9642V14.7929C28.9642 13.9371 29.1381 13.2595 29.4858 12.7603C29.8334 12.2611 30.4263 12.0114 31.2643 12.0114C31.7903 12.0114 32.2227 12.1407 32.5614 12.3992C32.9091 12.6489 33.083 12.9921 33.083 13.4289C33.083 13.6964 33.0072 13.9148 32.8556 14.0842C32.713 14.2536 32.5169 14.3383 32.2672 14.3383C32.0444 14.3383 31.8482 14.2536 31.6789 14.0842C31.5095 13.9148 31.4248 13.7187 31.4248 13.4958C31.7279 13.4066 31.8794 13.1971 31.8794 12.8673C31.8794 12.7157 31.817 12.5865 31.6922 12.4795C31.5763 12.3636 31.4337 12.3056 31.2643 12.3056C30.9166 12.3056 30.667 12.4706 30.5154 12.8004C30.3728 13.1214 30.3015 13.6473 30.3015 14.3784V15.9162H32.0399V16.1837L30.3015 16.3174V22.442L31.8928 22.5757V22.8432H28.0281V22.5757ZM34.0036 14.365C33.754 14.365 33.54 14.2803 33.3617 14.1109C33.1834 13.9326 33.0943 13.7187 33.0943 13.469C33.0943 13.2194 33.1789 13.0099 33.3483 12.8405C33.5266 12.6711 33.745 12.5865 34.0036 12.5865C34.2443 12.5865 34.4493 12.6711 34.6187 12.8405C34.7881 13.0099 34.8728 13.2194 34.8728 13.469C34.8728 13.7187 34.7881 13.9326 34.6187 14.1109C34.4493 14.2803 34.2443 14.365 34.0036 14.365ZM32.5861 22.8432V22.5757L33.5222 22.442V16.3308L32.5861 16.197V15.9296H34.8594V22.442L35.7955 22.5757V22.8432H32.5861ZM40.1157 22.9769C39.4738 22.9769 38.8899 22.8298 38.3639 22.5356C37.8379 22.2325 37.4189 21.8091 37.1069 21.2652C36.8037 20.7125 36.6522 20.084 36.6522 19.3797C36.6522 18.6398 36.8127 17.9979 37.1336 17.4541C37.4635 16.9102 37.8914 16.5002 38.4174 16.2238C38.9434 15.9385 39.5095 15.7959 40.1157 15.7959C40.6238 15.7959 41.0874 15.885 41.5064 16.0633C41.9254 16.2327 42.2553 16.4734 42.496 16.7854C42.7456 17.0975 42.8704 17.4496 42.8704 17.8419C42.8704 18.1361 42.7946 18.3634 42.6431 18.5239C42.4915 18.6754 42.2909 18.7512 42.0413 18.7512C41.8006 18.7512 41.6 18.671 41.4396 18.5105C41.2791 18.35 41.1989 18.1494 41.1989 17.9087C41.3326 17.8196 41.4262 17.7215 41.4797 17.6145C41.5332 17.5076 41.5599 17.3738 41.5599 17.2134C41.5599 16.8835 41.4262 16.616 41.1587 16.411C40.9002 16.197 40.5525 16.0901 40.1157 16.0901C39.4738 16.0901 38.979 16.3219 38.6313 16.7854C38.2926 17.2401 38.1232 17.882 38.1232 18.7111V20.0483C38.1232 20.8418 38.2881 21.4792 38.618 21.9606C38.9567 22.442 39.456 22.6827 40.1157 22.6827C40.7219 22.6827 41.2479 22.5133 41.6936 22.1746C42.1483 21.8269 42.4291 21.3722 42.5361 20.8106H42.8437C42.7189 21.4703 42.4068 21.9963 41.9076 22.3885C41.4173 22.7808 40.82 22.9769 40.1157 22.9769Z" fill="white"/>
</svg>
