<svg width="75" height="13" viewBox="0 0 75 13" fill="none" xmlns="http://www.w3.org/2000/svg">
<path d="M0.287109 8.68262H1.51074C1.52441 9.10189 1.6748 9.44368 1.96191 9.70801C2.25358 9.96777 2.62272 10.0977 3.06934 10.0977C3.61165 10.0977 4.02637 9.94043 4.31348 9.62598C4.60059 9.30697 4.74414 8.84668 4.74414 8.24512V1.13574H5.97461V8.25195C5.97461 9.1862 5.7194 9.91764 5.20898 10.4463C4.69857 10.9704 3.98763 11.2324 3.07617 11.2324C2.25586 11.2324 1.58594 10.9954 1.06641 10.5215C0.546875 10.043 0.287109 9.43001 0.287109 8.68262ZM10.0488 10.1113C10.6094 10.1113 11.0788 9.93815 11.457 9.5918C11.8398 9.24089 12.0312 8.81022 12.0312 8.2998V7.71875L10.1309 7.83496C9.65234 7.86686 9.28092 7.98307 9.0166 8.18359C8.75684 8.38411 8.62695 8.65299 8.62695 8.99023C8.62695 9.32747 8.75684 9.59863 9.0166 9.80371C9.27637 10.0088 9.62044 10.1113 10.0488 10.1113ZM9.78223 11.123C9.07585 11.123 8.50391 10.9271 8.06641 10.5352C7.63346 10.1432 7.41699 9.62826 7.41699 8.99023C7.41699 8.37956 7.6403 7.89193 8.08691 7.52734C8.53809 7.16276 9.17383 6.95768 9.99414 6.91211L12.0312 6.7959V6.20117C12.0312 5.76823 11.8945 5.42871 11.6211 5.18262C11.3477 4.93652 10.9648 4.81348 10.4727 4.81348C10.0215 4.81348 9.65462 4.91374 9.37207 5.11426C9.08952 5.31022 8.90951 5.58594 8.83203 5.94141H7.68359C7.72461 5.30794 7.99805 4.78841 8.50391 4.38281C9.01432 3.97266 9.67969 3.76758 10.5 3.76758C11.334 3.76758 11.9948 3.97721 12.4824 4.39648C12.9746 4.81576 13.2207 5.37858 13.2207 6.08496V11H12.0928V9.77637H12.0654C11.8512 10.182 11.5368 10.5078 11.1221 10.7539C10.7074 11 10.2607 11.123 9.78223 11.123ZM14.7314 11V3.89062H15.8525V5.02539H15.8799C16.085 4.62891 16.3789 4.32129 16.7617 4.10254C17.1445 3.87923 17.6025 3.76758 18.1357 3.76758C18.9105 3.76758 19.5143 4.00228 19.9473 4.47168C20.3802 4.93652 20.5967 5.57454 20.5967 6.38574V11H19.4072V6.59766C19.4072 6.01888 19.2705 5.5791 18.9971 5.27832C18.7236 4.97298 18.3158 4.82031 17.7734 4.82031C17.2129 4.82031 16.764 5.0026 16.4268 5.36719C16.0895 5.73177 15.9209 6.21484 15.9209 6.81641V11H14.7314ZM28.4648 11.1641C27.321 11.1641 26.4277 10.7083 25.7852 9.79688C25.1471 8.88086 24.8281 7.63672 24.8281 6.06445C24.8281 4.50586 25.1494 3.26855 25.792 2.35254C26.4391 1.43197 27.3301 0.97168 28.4648 0.97168C29.5996 0.97168 30.486 1.42969 31.124 2.3457C31.7666 3.25716 32.0879 4.49447 32.0879 6.05762C32.0879 7.62988 31.7689 8.87402 31.1309 9.79004C30.4928 10.7061 29.6042 11.1641 28.4648 11.1641ZM26.6943 9.01074C27.1136 9.73079 27.7038 10.0908 28.4648 10.0908C29.2259 10.0908 29.8138 9.73307 30.2285 9.01758C30.6432 8.29753 30.8506 7.31315 30.8506 6.06445C30.8506 4.83398 30.641 3.85872 30.2217 3.13867C29.8024 2.41406 29.2168 2.05176 28.4648 2.05176C27.7129 2.05176 27.125 2.41406 26.7012 3.13867C26.2773 3.86328 26.0654 4.83626 26.0654 6.05762C26.0654 7.30632 26.2751 8.29069 26.6943 9.01074ZM33.7969 11L38.2607 2.25684V2.22949H32.9492V1.13574H39.4775V2.27734L35.0889 11H33.7969ZM40.168 12.9619H39.1768L39.8398 9.48242H41.1045L40.168 12.9619ZM45.0625 3.97949C45.0625 3.11816 45.3724 2.40267 45.9922 1.83301C46.612 1.25879 47.3867 0.97168 48.3164 0.97168C49.196 0.97168 49.9411 1.23372 50.5518 1.75781C51.1624 2.2819 51.4678 2.9222 51.4678 3.67871C51.4678 4.22559 51.3174 4.75195 51.0166 5.25781C50.7158 5.76367 50.1507 6.44499 49.3213 7.30176L46.8262 9.87891V9.90625H51.6318V11H45.124V10.1523L48.5967 6.49512C49.2575 5.79785 49.695 5.26921 49.9092 4.90918C50.1279 4.54915 50.2373 4.16406 50.2373 3.75391C50.2373 3.27995 50.0459 2.87663 49.6631 2.54395C49.2848 2.21126 48.8245 2.04492 48.2822 2.04492C47.7035 2.04492 47.2204 2.22949 46.833 2.59863C46.4456 2.96777 46.252 3.42806 46.252 3.97949V3.98633H45.0625V3.97949ZM56.5059 11.1641C55.362 11.1641 54.4688 10.7083 53.8262 9.79688C53.1882 8.88086 52.8691 7.63672 52.8691 6.06445C52.8691 4.50586 53.1904 3.26855 53.833 2.35254C54.4801 1.43197 55.3711 0.97168 56.5059 0.97168C57.6406 0.97168 58.527 1.42969 59.165 2.3457C59.8076 3.25716 60.1289 4.49447 60.1289 6.05762C60.1289 7.62988 59.8099 8.87402 59.1719 9.79004C58.5339 10.7061 57.6452 11.1641 56.5059 11.1641ZM54.7354 9.01074C55.1546 9.73079 55.7448 10.0908 56.5059 10.0908C57.2669 10.0908 57.8548 9.73307 58.2695 9.01758C58.6842 8.29753 58.8916 7.31315 58.8916 6.06445C58.8916 4.83398 58.682 3.85872 58.2627 3.13867C57.8434 2.41406 57.2578 2.05176 56.5059 2.05176C55.7539 2.05176 55.166 2.41406 54.7422 3.13867C54.3184 3.86328 54.1064 4.83626 54.1064 6.05762C54.1064 7.30632 54.3161 8.29069 54.7354 9.01074ZM63.9229 11V2.44141H63.8955L61.2842 4.32129V3.02246L63.9092 1.13574H65.1123V11H63.9229ZM70.752 11.1641C69.9134 11.1641 69.1956 10.9316 68.5986 10.4668C68.0016 10.002 67.6279 9.38216 67.4775 8.60742H68.7285C68.8607 9.05404 69.1113 9.41406 69.4805 9.6875C69.8496 9.95638 70.278 10.0908 70.7656 10.0908C71.5859 10.0908 72.2217 9.73535 72.6729 9.02441C73.1286 8.30892 73.3656 7.29492 73.3838 5.98242H73.377H73.3633C73.1536 6.47005 72.7982 6.86198 72.2969 7.1582C71.8001 7.44987 71.2373 7.5957 70.6084 7.5957C69.6696 7.5957 68.888 7.28581 68.2637 6.66602C67.6439 6.04622 67.334 5.26921 67.334 4.33496C67.334 3.3597 67.6621 2.55534 68.3184 1.92188C68.9792 1.28385 69.8154 0.964844 70.8271 0.964844C71.57 0.964844 72.224 1.15853 72.7891 1.5459C73.3542 1.92871 73.7871 2.47331 74.0879 3.17969C74.4115 3.92708 74.5732 4.83398 74.5732 5.90039C74.5732 7.5638 74.2383 8.85807 73.5684 9.7832C72.8984 10.7038 71.9596 11.1641 70.752 11.1641ZM70.8203 6.51562C71.472 6.51562 72.0143 6.30827 72.4473 5.89355C72.8802 5.47884 73.0967 4.95703 73.0967 4.32812C73.0967 3.69466 72.8779 3.16146 72.4404 2.72852C72.0075 2.29102 71.4743 2.07227 70.8408 2.07227C70.2074 2.07227 69.6719 2.28874 69.2344 2.72168C68.7969 3.15007 68.5781 3.67415 68.5781 4.29395C68.5781 4.93652 68.79 5.46745 69.2139 5.88672C69.6377 6.30599 70.1732 6.51562 70.8203 6.51562Z" fill="black" fill-opacity="0.25"/>
</svg>
