<svg width="240" height="29" viewBox="0 0 240 29" fill="none" xmlns="http://www.w3.org/2000/svg">
<path d="M6.31641 9H7.42383L4.30664 0.544922H3.26367L0.146484 9H1.25391L2.10352 6.58008H5.4668L6.31641 9ZM3.76758 1.82812H3.80273L5.15625 5.68359H2.41406L3.76758 1.82812ZM8.23242 9H9.25195V5.41406C9.25195 4.38281 9.87891 3.70312 10.8398 3.70312C11.7773 3.70312 12.2402 4.24219 12.2402 5.22656V9H13.2598V5.04492C13.2598 3.66211 12.4863 2.80078 11.1504 2.80078C10.207 2.80078 9.55664 3.22266 9.2168 3.87891H9.19336V2.90625H8.23242V9ZM15.0645 11.2793C16.166 11.2793 16.6699 10.8516 17.1914 9.42773L19.5879 2.90625H18.5156L16.8281 7.98047H16.8105L15.123 2.90625H14.0332L16.2832 9.00586L16.1426 9.43359C15.9082 10.1426 15.5918 10.418 15.0234 10.418C14.8945 10.418 14.7363 10.4121 14.625 10.3887V11.2441C14.7363 11.2676 14.9414 11.2793 15.0645 11.2793ZM27.9199 4.9043C27.791 3.80859 26.8828 2.80078 25.3594 2.80078C23.6777 2.80078 22.5586 4.03125 22.5586 5.95312C22.5586 7.91602 23.6836 9.10547 25.3711 9.10547C26.7539 9.10547 27.7734 8.25 27.9316 7.03711H26.9297C26.7539 7.76953 26.209 8.20898 25.377 8.20898C24.3223 8.20898 23.5957 7.37109 23.5957 5.95312C23.5957 4.57031 24.3105 3.69727 25.3652 3.69727C26.2617 3.69727 26.7773 4.24219 26.9238 4.9043H27.9199ZM28.9219 9H29.9414V5.44922C29.9414 4.39453 30.5684 3.70312 31.582 3.70312C32.5371 3.70312 33.0234 4.2832 33.0234 5.25V9H34.043V5.0625C34.043 3.70312 33.2344 2.80078 31.8984 2.80078C30.9727 2.80078 30.3047 3.19922 29.9648 3.87891H29.9414V0.544922H28.9219V9ZM37.3477 8.23828C36.6152 8.23828 36.1289 7.85742 36.1289 7.27734C36.1289 6.70312 36.5977 6.33984 37.418 6.28711L39.0469 6.1875V6.68555C39.0469 7.56445 38.3086 8.23828 37.3477 8.23828ZM37.1191 9.10547C37.9395 9.10547 38.7129 8.64844 39.0762 7.95117H39.0996V9H40.0664V4.78711C40.0664 3.57422 39.1641 2.80078 37.7344 2.80078C36.293 2.80078 35.3906 3.60938 35.3203 4.66406H36.3047C36.4336 4.06641 36.9258 3.69727 37.7109 3.69727C38.5547 3.69727 39.0469 4.14258 39.0469 4.88672V5.39648L37.3008 5.49609C35.8945 5.57812 35.0918 6.23438 35.0918 7.27734C35.0918 8.37305 35.9062 9.10547 37.1191 9.10547ZM41.3613 9H42.3809V5.41406C42.3809 4.38281 43.0078 3.70312 43.9688 3.70312C44.9062 3.70312 45.3691 4.24219 45.3691 5.22656V9H46.3887V5.04492C46.3887 3.66211 45.6152 2.80078 44.2793 2.80078C43.3359 2.80078 42.6855 3.22266 42.3457 3.87891H42.3223V2.90625H41.3613V9ZM50.168 8.15039C49.1191 8.15039 48.4336 7.29492 48.4336 5.92969C48.4336 4.56445 49.1191 3.69727 50.168 3.69727C51.2285 3.69727 51.9375 4.58789 51.9375 5.92969C51.9375 7.27148 51.2285 8.15039 50.168 8.15039ZM50.2031 11.2969C51.8848 11.2969 52.957 10.3301 52.957 8.87695V2.90625H51.9844V3.93164H51.9668C51.5625 3.22266 50.8477 2.80078 49.9863 2.80078C48.4102 2.80078 47.3906 4.01953 47.3906 5.92969C47.3906 7.82227 48.4102 9.04688 49.9629 9.04688C50.8184 9.04688 51.5391 8.61328 51.9141 7.95117H51.9375V8.91211C51.9375 9.82031 51.2988 10.4297 50.2441 10.4297C49.4824 10.4297 48.8789 10.0605 48.6797 9.50391H47.6309C47.8008 10.541 48.8613 11.2969 50.2031 11.2969ZM56.7305 3.68555C57.6914 3.68555 58.3301 4.41211 58.3535 5.43164H55.043C55.1074 4.41797 55.7754 3.68555 56.7305 3.68555ZM58.3301 7.25391C58.1602 7.82812 57.5918 8.2207 56.8184 8.2207C55.7227 8.2207 55.0371 7.45312 55.0371 6.28711V6.22852H59.4082V5.8418C59.4082 3.99609 58.3945 2.80078 56.748 2.80078C55.0664 2.80078 53.9883 4.08398 53.9883 5.97656C53.9883 7.89258 55.0488 9.10547 56.7949 9.10547C58.125 9.10547 59.1562 8.32031 59.332 7.25391H58.3301ZM60.334 4.58789C60.334 5.41992 60.8613 5.9707 61.9336 6.24609L63.0059 6.52148C63.6914 6.70312 63.9434 6.9375 63.9434 7.37109C63.9434 7.92188 63.4336 8.27344 62.6074 8.27344C61.7812 8.27344 61.3008 7.93359 61.1895 7.30078H60.1699C60.2754 8.37891 61.207 9.10547 62.543 9.10547C63.9668 9.10547 64.9688 8.35547 64.9688 7.29492C64.9688 6.39844 64.5234 5.95312 63.293 5.64258L62.3496 5.41406C61.6582 5.23828 61.3359 4.95703 61.3359 4.53516C61.3359 4.00195 61.8281 3.63281 62.5723 3.63281C63.3223 3.63281 63.7969 3.99609 63.8672 4.58203H64.8398C64.793 3.55078 63.8672 2.80078 62.6074 2.80078C61.2656 2.80078 60.334 3.54492 60.334 4.58789ZM68.9941 11.2793C70.0957 11.2793 70.5996 10.8516 71.1211 9.42773L73.5176 2.90625H72.4453L70.7578 7.98047H70.7402L69.0527 2.90625H67.9629L70.2129 9.00586L70.0723 9.43359C69.8379 10.1426 69.5215 10.418 68.9531 10.418C68.8242 10.418 68.666 10.4121 68.5547 10.3887V11.2441C68.666 11.2676 68.8711 11.2793 68.9941 11.2793ZM76.6758 9.10547C78.3574 9.10547 79.4941 7.89258 79.4941 5.95312C79.4941 4.00781 78.3574 2.80078 76.6758 2.80078C74.9883 2.80078 73.8516 4.00781 73.8516 5.95312C73.8516 7.89258 74.9883 9.10547 76.6758 9.10547ZM76.6758 8.20898C75.5977 8.20898 74.8887 7.38867 74.8887 5.95312C74.8887 4.51758 75.5977 3.69727 76.6758 3.69727C77.7539 3.69727 78.457 4.51758 78.457 5.95312C78.457 7.38867 77.7539 8.20898 76.6758 8.20898ZM85.5293 2.90625H84.5098V6.48633C84.5098 7.52344 83.9121 8.20312 82.9219 8.20312C81.9785 8.20312 81.5156 7.66992 81.5156 6.67969V2.90625H80.4961V6.86133C80.4961 8.24414 81.2754 9.10547 82.6055 9.10547C83.543 9.10547 84.1758 8.71289 84.5391 8.00977H84.5625V9H85.5293V2.90625ZM89.3145 9H90.334V5.17969C90.334 4.33594 90.9199 3.70312 91.7285 3.70312C92.4844 3.70312 92.9766 4.18359 92.9766 4.91602V9H93.9961V5.12695C93.9961 4.30078 94.5645 3.70312 95.373 3.70312C96.1758 3.70312 96.6387 4.19531 96.6387 5.02734V9H97.6582V4.79297C97.6582 3.58594 96.8789 2.80078 95.6719 2.80078C94.8164 2.80078 94.1016 3.23438 93.7617 3.96094H93.7383C93.4746 3.22266 92.8594 2.80078 92.0273 2.80078C91.207 2.80078 90.5859 3.23438 90.2988 3.87891H90.2754V2.90625H89.3145V9ZM100.969 8.23828C100.236 8.23828 99.75 7.85742 99.75 7.27734C99.75 6.70312 100.219 6.33984 101.039 6.28711L102.668 6.1875V6.68555C102.668 7.56445 101.93 8.23828 100.969 8.23828ZM100.74 9.10547C101.561 9.10547 102.334 8.64844 102.697 7.95117H102.721V9H103.688V4.78711C103.688 3.57422 102.785 2.80078 101.355 2.80078C99.9141 2.80078 99.0117 3.60938 98.9414 4.66406H99.9258C100.055 4.06641 100.547 3.69727 101.332 3.69727C102.176 3.69727 102.668 4.14258 102.668 4.88672V5.39648L100.922 5.49609C99.5156 5.57812 98.7129 6.23438 98.7129 7.27734C98.7129 8.37305 99.5273 9.10547 100.74 9.10547ZM106.055 5.61328V0.544922H105.035V9H106.055V6.70312L106.623 6.16406L108.885 9H110.068L107.344 5.53711L109.986 2.90625H108.75L106.055 5.61328ZM112.957 3.68555C113.918 3.68555 114.557 4.41211 114.58 5.43164H111.27C111.334 4.41797 112.002 3.68555 112.957 3.68555ZM114.557 7.25391C114.387 7.82812 113.818 8.2207 113.045 8.2207C111.949 8.2207 111.264 7.45312 111.264 6.28711V6.22852H115.635V5.8418C115.635 3.99609 114.621 2.80078 112.975 2.80078C111.293 2.80078 110.215 4.08398 110.215 5.97656C110.215 7.89258 111.275 9.10547 113.021 9.10547C114.352 9.10547 115.383 8.32031 115.559 7.25391H114.557ZM121.137 8.23828C120.404 8.23828 119.918 7.85742 119.918 7.27734C119.918 6.70312 120.387 6.33984 121.207 6.28711L122.836 6.1875V6.68555C122.836 7.56445 122.098 8.23828 121.137 8.23828ZM120.908 9.10547C121.729 9.10547 122.502 8.64844 122.865 7.95117H122.889V9H123.855V4.78711C123.855 3.57422 122.953 2.80078 121.523 2.80078C120.082 2.80078 119.18 3.60938 119.109 4.66406H120.094C120.223 4.06641 120.715 3.69727 121.5 3.69727C122.344 3.69727 122.836 4.14258 122.836 4.88672V5.39648L121.09 5.49609C119.684 5.57812 118.881 6.23438 118.881 7.27734C118.881 8.37305 119.695 9.10547 120.908 9.10547ZM128.109 2.80078C127.225 2.80078 126.516 3.25195 126.141 3.9375H126.117V2.90625H125.15V11.0332H126.17V8.00977H126.193C126.557 8.67773 127.26 9.10547 128.133 9.10547C129.668 9.10547 130.717 7.86328 130.717 5.95312C130.717 4.04297 129.662 2.80078 128.109 2.80078ZM127.91 8.20898C126.867 8.20898 126.164 7.3125 126.164 5.95312C126.164 4.59961 126.867 3.69727 127.91 3.69727C128.994 3.69727 129.674 4.57617 129.674 5.95312C129.674 7.33594 128.994 8.20898 127.91 8.20898ZM134.707 2.80078C133.822 2.80078 133.113 3.25195 132.738 3.9375H132.715V2.90625H131.748V11.0332H132.768V8.00977H132.791C133.154 8.67773 133.857 9.10547 134.73 9.10547C136.266 9.10547 137.314 7.86328 137.314 5.95312C137.314 4.04297 136.26 2.80078 134.707 2.80078ZM134.508 8.20898C133.465 8.20898 132.762 7.3125 132.762 5.95312C132.762 4.59961 133.465 3.69727 134.508 3.69727C135.592 3.69727 136.271 4.57617 136.271 5.95312C136.271 7.33594 135.592 8.20898 134.508 8.20898ZM138.398 9H139.418V0.544922H138.398V9ZM141.299 11.2793C142.4 11.2793 142.904 10.8516 143.426 9.42773L145.822 2.90625H144.75L143.062 7.98047H143.045L141.357 2.90625H140.268L142.518 9.00586L142.377 9.43359C142.143 10.1426 141.826 10.418 141.258 10.418C141.129 10.418 140.971 10.4121 140.859 10.3887V11.2441C140.971 11.2676 141.176 11.2793 141.299 11.2793ZM149.42 1.43555V2.90625H148.512V3.74414H149.42V7.41797C149.42 8.58984 149.854 9.04688 150.973 9.04688C151.213 9.04688 151.494 9.0293 151.617 9V8.14453C151.547 8.15625 151.312 8.17383 151.195 8.17383C150.674 8.17383 150.439 7.92188 150.439 7.36523V3.74414H151.623V2.90625H150.439V1.43555H149.42ZM155.062 9.10547C156.744 9.10547 157.881 7.89258 157.881 5.95312C157.881 4.00781 156.744 2.80078 155.062 2.80078C153.375 2.80078 152.238 4.00781 152.238 5.95312C152.238 7.89258 153.375 9.10547 155.062 9.10547ZM155.062 8.20898C153.984 8.20898 153.275 7.38867 153.275 5.95312C153.275 4.51758 153.984 3.69727 155.062 3.69727C156.141 3.69727 156.844 4.51758 156.844 5.95312C156.844 7.38867 156.141 8.20898 155.062 8.20898ZM165.158 9C166.963 9 168.082 8.06836 168.082 6.58008C168.082 5.46094 167.238 4.62305 166.09 4.53516V4.48828C166.986 4.35352 167.678 3.58008 167.678 2.6543C167.678 1.35938 166.682 0.544922 165.094 0.544922H161.414V9H165.158ZM163.184 1.86328H164.637C165.463 1.86328 165.938 2.25 165.938 2.92969C165.938 3.64453 165.398 4.06055 164.455 4.06055H163.184V1.86328ZM163.184 7.68164V5.22656H164.666C165.709 5.22656 166.277 5.64844 166.277 6.43945C166.277 7.24805 165.727 7.68164 164.707 7.68164H163.184ZM171.762 3.84961C172.523 3.84961 173.045 4.40039 173.08 5.20312H170.414C170.473 4.41797 171.012 3.84961 171.762 3.84961ZM173.104 7.07812C172.945 7.55859 172.465 7.86914 171.838 7.86914C170.965 7.86914 170.396 7.25391 170.396 6.35742V6.25195H174.727V5.73047C174.727 3.82031 173.572 2.58398 171.744 2.58398C169.887 2.58398 168.715 3.88477 168.715 5.88867C168.715 7.89844 169.875 9.13477 171.809 9.13477C173.361 9.13477 174.486 8.30859 174.674 7.07812H173.104ZM175.506 4.56445C175.506 5.49023 176.115 6.11133 177.305 6.38086L178.465 6.63867C179.027 6.77344 179.238 6.94922 179.238 7.26562C179.238 7.67578 178.846 7.93359 178.195 7.93359C177.516 7.93359 177.1 7.62891 177.018 7.10156H175.348C175.441 8.32617 176.473 9.13477 178.148 9.13477C179.807 9.13477 180.943 8.32031 180.943 7.08398C180.943 6.14648 180.434 5.64844 179.174 5.36719L177.973 5.10938C177.422 4.98047 177.152 4.76953 177.152 4.45898C177.152 4.05469 177.539 3.78516 178.131 3.78516C178.764 3.78516 179.168 4.0957 179.203 4.59961H180.779C180.756 3.38086 179.73 2.58398 178.154 2.58398C176.543 2.58398 175.506 3.36914 175.506 4.56445ZM181.693 4.56445C181.693 5.49023 182.303 6.11133 183.492 6.38086L184.652 6.63867C185.215 6.77344 185.426 6.94922 185.426 7.26562C185.426 7.67578 185.033 7.93359 184.383 7.93359C183.703 7.93359 183.287 7.62891 183.205 7.10156H181.535C181.629 8.32617 182.66 9.13477 184.336 9.13477C185.994 9.13477 187.131 8.32031 187.131 7.08398C187.131 6.14648 186.621 5.64844 185.361 5.36719L184.16 5.10938C183.609 4.98047 183.34 4.76953 183.34 4.45898C183.34 4.05469 183.727 3.78516 184.318 3.78516C184.951 3.78516 185.355 4.0957 185.391 4.59961H186.967C186.943 3.38086 185.918 2.58398 184.342 2.58398C182.73 2.58398 181.693 3.36914 181.693 4.56445ZM188.016 9H189.727V2.71875H188.016V9ZM188.871 2.02734C189.387 2.02734 189.785 1.63477 189.785 1.14258C189.785 0.644531 189.387 0.257812 188.871 0.257812C188.355 0.257812 187.957 0.644531 187.957 1.14258C187.957 1.63477 188.355 2.02734 188.871 2.02734ZM193.688 3.84961C194.449 3.84961 194.971 4.40039 195.006 5.20312H192.34C192.398 4.41797 192.938 3.84961 193.688 3.84961ZM195.029 7.07812C194.871 7.55859 194.391 7.86914 193.764 7.86914C192.891 7.86914 192.322 7.25391 192.322 6.35742V6.25195H196.652V5.73047C196.652 3.82031 195.498 2.58398 193.67 2.58398C191.812 2.58398 190.641 3.88477 190.641 5.88867C190.641 7.89844 191.801 9.13477 193.734 9.13477C195.287 9.13477 196.412 8.30859 196.6 7.07812H195.029ZM203.801 9.14648C205.875 9.14648 207.322 7.95117 207.521 6.06445H205.799C205.611 7.06641 204.855 7.68164 203.807 7.68164C202.453 7.68164 201.604 6.56836 201.604 4.76367C201.604 2.98242 202.465 1.86328 203.801 1.86328C204.832 1.86328 205.629 2.54297 205.793 3.58008H207.516C207.381 1.6875 205.834 0.398438 203.801 0.398438C201.352 0.398438 199.799 2.04492 199.799 4.76953C199.799 7.5 201.34 9.14648 203.801 9.14648ZM211.354 9.13477C213.252 9.13477 214.465 7.92188 214.465 5.85352C214.465 3.81445 213.234 2.58398 211.354 2.58398C209.473 2.58398 208.242 3.82031 208.242 5.85352C208.242 7.91602 209.455 9.13477 211.354 9.13477ZM211.354 7.82812C210.51 7.82812 209.977 7.11914 209.977 5.85938C209.977 4.61133 210.521 3.89062 211.354 3.89062C212.186 3.89062 212.725 4.61133 212.725 5.85938C212.725 7.11914 212.191 7.82812 211.354 7.82812ZM218.232 9.13477C220.131 9.13477 221.344 7.92188 221.344 5.85352C221.344 3.81445 220.113 2.58398 218.232 2.58398C216.352 2.58398 215.121 3.82031 215.121 5.85352C215.121 7.91602 216.334 9.13477 218.232 9.13477ZM218.232 7.82812C217.389 7.82812 216.855 7.11914 216.855 5.85938C216.855 4.61133 217.4 3.89062 218.232 3.89062C219.064 3.89062 219.604 4.61133 219.604 5.85938C219.604 7.11914 219.07 7.82812 218.232 7.82812ZM225.896 2.61914C224.988 2.61914 224.291 3.07617 223.951 3.81445H223.916V2.71875H222.229V11.0508H223.939V7.94531H223.975C224.309 8.6543 225.012 9.09961 225.926 9.09961C227.496 9.09961 228.469 7.88086 228.469 5.85938C228.469 3.83203 227.49 2.61914 225.896 2.61914ZM225.322 7.72266C224.484 7.72266 223.934 6.99609 223.934 5.85938C223.934 4.73438 224.484 3.99023 225.322 3.99023C226.178 3.99023 226.717 4.72266 226.717 5.85938C226.717 7.00195 226.178 7.72266 225.322 7.72266ZM232.172 3.84961C232.934 3.84961 233.455 4.40039 233.49 5.20312H230.824C230.883 4.41797 231.422 3.84961 232.172 3.84961ZM233.514 7.07812C233.355 7.55859 232.875 7.86914 232.248 7.86914C231.375 7.86914 230.807 7.25391 230.807 6.35742V6.25195H235.137V5.73047C235.137 3.82031 233.982 2.58398 232.154 2.58398C230.297 2.58398 229.125 3.88477 229.125 5.88867C229.125 7.89844 230.285 9.13477 232.219 9.13477C233.771 9.13477 234.896 8.30859 235.084 7.07812H233.514ZM236.021 9H237.732V5.49023C237.732 4.60547 238.225 4.08984 239.068 4.08984C239.314 4.08984 239.549 4.13086 239.689 4.18945V2.68359C239.572 2.64844 239.402 2.61914 239.203 2.61914C238.465 2.61914 237.932 3.05273 237.709 3.84961H237.674V2.71875H236.021V9ZM3.1875 26.1055C4.86914 26.1055 6.00586 24.8926 6.00586 22.9531C6.00586 21.0078 4.86914 19.8008 3.1875 19.8008C1.5 19.8008 0.363281 21.0078 0.363281 22.9531C0.363281 24.8926 1.5 26.1055 3.1875 26.1055ZM3.1875 25.209C2.10938 25.209 1.40039 24.3887 1.40039 22.9531C1.40039 21.5176 2.10938 20.6973 3.1875 20.6973C4.26562 20.6973 4.96875 21.5176 4.96875 22.9531C4.96875 24.3887 4.26562 25.209 3.1875 25.209ZM7.03711 26H8.05664V22.4141C8.05664 21.3828 8.68359 20.7031 9.64453 20.7031C10.582 20.7031 11.0449 21.2422 11.0449 22.2266V26H12.0645V22.0449C12.0645 20.6621 11.291 19.8008 9.95508 19.8008C9.01172 19.8008 8.36133 20.2227 8.02148 20.8789H7.99805V19.9062H7.03711V26ZM13.418 26H14.4375V17.5449H13.418V26ZM16.3184 28.2793C17.4199 28.2793 17.9238 27.8516 18.4453 26.4277L20.8418 19.9062H19.7695L18.082 24.9805H18.0645L16.377 19.9062H15.2871L17.5371 26.0059L17.3965 26.4336C17.1621 27.1426 16.8457 27.418 16.2773 27.418C16.1484 27.418 15.9902 27.4121 15.8789 27.3887V28.2441C15.9902 28.2676 16.1953 28.2793 16.3184 28.2793ZM21.6328 26.0586C22.0078 26.0586 22.3008 25.7656 22.3008 25.3906C22.3008 25.0156 22.0078 24.7227 21.6328 24.7227C21.2578 24.7227 20.9648 25.0156 20.9648 25.3906C20.9648 25.7656 21.2578 26.0586 21.6328 26.0586Z" fill="#185998"/>
</svg>
