<svg width="77" height="13" viewBox="0 0 77 13" fill="none" xmlns="http://www.w3.org/2000/svg">
<path d="M0.287109 8.68262H1.51074C1.52441 9.10189 1.6748 9.44368 1.96191 9.70801C2.25358 9.96777 2.62272 10.0977 3.06934 10.0977C3.61165 10.0977 4.02637 9.94043 4.31348 9.62598C4.60059 9.30697 4.74414 8.84668 4.74414 8.24512V1.13574H5.97461V8.25195C5.97461 9.1862 5.7194 9.91764 5.20898 10.4463C4.69857 10.9704 3.98763 11.2324 3.07617 11.2324C2.25586 11.2324 1.58594 10.9954 1.06641 10.5215C0.546875 10.043 0.287109 9.43001 0.287109 8.68262ZM10.0488 10.1113C10.6094 10.1113 11.0788 9.93815 11.457 9.5918C11.8398 9.24089 12.0312 8.81022 12.0312 8.2998V7.71875L10.1309 7.83496C9.65234 7.86686 9.28092 7.98307 9.0166 8.18359C8.75684 8.38411 8.62695 8.65299 8.62695 8.99023C8.62695 9.32747 8.75684 9.59863 9.0166 9.80371C9.27637 10.0088 9.62044 10.1113 10.0488 10.1113ZM9.78223 11.123C9.07585 11.123 8.50391 10.9271 8.06641 10.5352C7.63346 10.1432 7.41699 9.62826 7.41699 8.99023C7.41699 8.37956 7.6403 7.89193 8.08691 7.52734C8.53809 7.16276 9.17383 6.95768 9.99414 6.91211L12.0312 6.7959V6.20117C12.0312 5.76823 11.8945 5.42871 11.6211 5.18262C11.3477 4.93652 10.9648 4.81348 10.4727 4.81348C10.0215 4.81348 9.65462 4.91374 9.37207 5.11426C9.08952 5.31022 8.90951 5.58594 8.83203 5.94141H7.68359C7.72461 5.30794 7.99805 4.78841 8.50391 4.38281C9.01432 3.97266 9.67969 3.76758 10.5 3.76758C11.334 3.76758 11.9948 3.97721 12.4824 4.39648C12.9746 4.81576 13.2207 5.37858 13.2207 6.08496V11H12.0928V9.77637H12.0654C11.8512 10.182 11.5368 10.5078 11.1221 10.7539C10.7074 11 10.2607 11.123 9.78223 11.123ZM14.7314 11V3.89062H15.8525V5.02539H15.8799C16.085 4.62891 16.3789 4.32129 16.7617 4.10254C17.1445 3.87923 17.6025 3.76758 18.1357 3.76758C18.9105 3.76758 19.5143 4.00228 19.9473 4.47168C20.3802 4.93652 20.5967 5.57454 20.5967 6.38574V11H19.4072V6.59766C19.4072 6.01888 19.2705 5.5791 18.9971 5.27832C18.7236 4.97298 18.3158 4.82031 17.7734 4.82031C17.2129 4.82031 16.764 5.0026 16.4268 5.36719C16.0895 5.73177 15.9209 6.21484 15.9209 6.81641V11H14.7314ZM24.9512 3.97949C24.9512 3.11816 25.2611 2.40267 25.8809 1.83301C26.5007 1.25879 27.2754 0.97168 28.2051 0.97168C29.0846 0.97168 29.8298 1.23372 30.4404 1.75781C31.0511 2.2819 31.3564 2.9222 31.3564 3.67871C31.3564 4.22559 31.2061 4.75195 30.9053 5.25781C30.6045 5.76367 30.0394 6.44499 29.21 7.30176L26.7148 9.87891V9.90625H31.5205V11H25.0127V10.1523L28.4854 6.49512C29.1462 5.79785 29.5837 5.26921 29.7979 4.90918C30.0166 4.54915 30.126 4.16406 30.126 3.75391C30.126 3.27995 29.9346 2.87663 29.5518 2.54395C29.1735 2.21126 28.7132 2.04492 28.1709 2.04492C27.5921 2.04492 27.109 2.22949 26.7217 2.59863C26.3343 2.96777 26.1406 3.42806 26.1406 3.97949V3.98633H24.9512V3.97949ZM36.3945 11.1641C35.2507 11.1641 34.3574 10.7083 33.7148 9.79688C33.0768 8.88086 32.7578 7.63672 32.7578 6.06445C32.7578 4.50586 33.0791 3.26855 33.7217 2.35254C34.3688 1.43197 35.2598 0.97168 36.3945 0.97168C37.5293 0.97168 38.4157 1.42969 39.0537 2.3457C39.6963 3.25716 40.0176 4.49447 40.0176 6.05762C40.0176 7.62988 39.6986 8.87402 39.0605 9.79004C38.4225 10.7061 37.5339 11.1641 36.3945 11.1641ZM34.624 9.01074C35.0433 9.73079 35.6335 10.0908 36.3945 10.0908C37.1556 10.0908 37.7435 9.73307 38.1582 9.01758C38.5729 8.29753 38.7803 7.31315 38.7803 6.06445C38.7803 4.83398 38.5706 3.85872 38.1514 3.13867C37.7321 2.41406 37.1465 2.05176 36.3945 2.05176C35.6426 2.05176 35.0547 2.41406 34.6309 3.13867C34.207 3.86328 33.9951 4.83626 33.9951 6.05762C33.9951 7.30632 34.2048 8.29069 34.624 9.01074ZM41.9453 12.9619H40.9541L41.6172 9.48242H42.8818L41.9453 12.9619ZM46.8398 3.97949C46.8398 3.11816 47.1497 2.40267 47.7695 1.83301C48.3893 1.25879 49.1641 0.97168 50.0938 0.97168C50.9733 0.97168 51.7184 1.23372 52.3291 1.75781C52.9398 2.2819 53.2451 2.9222 53.2451 3.67871C53.2451 4.22559 53.0947 4.75195 52.7939 5.25781C52.4932 5.76367 51.9281 6.44499 51.0986 7.30176L48.6035 9.87891V9.90625H53.4092V11H46.9014V10.1523L50.374 6.49512C51.0348 5.79785 51.4723 5.26921 51.6865 4.90918C51.9053 4.54915 52.0146 4.16406 52.0146 3.75391C52.0146 3.27995 51.8232 2.87663 51.4404 2.54395C51.0622 2.21126 50.6019 2.04492 50.0596 2.04492C49.4808 2.04492 48.9977 2.22949 48.6104 2.59863C48.223 2.96777 48.0293 3.42806 48.0293 3.97949V3.98633H46.8398V3.97949ZM58.2832 11.1641C57.1393 11.1641 56.2461 10.7083 55.6035 9.79688C54.9655 8.88086 54.6465 7.63672 54.6465 6.06445C54.6465 4.50586 54.9678 3.26855 55.6104 2.35254C56.2575 1.43197 57.1484 0.97168 58.2832 0.97168C59.418 0.97168 60.3044 1.42969 60.9424 2.3457C61.585 3.25716 61.9062 4.49447 61.9062 6.05762C61.9062 7.62988 61.5872 8.87402 60.9492 9.79004C60.3112 10.7061 59.4225 11.1641 58.2832 11.1641ZM56.5127 9.01074C56.932 9.73079 57.5221 10.0908 58.2832 10.0908C59.0443 10.0908 59.6322 9.73307 60.0469 9.01758C60.4616 8.29753 60.6689 7.31315 60.6689 6.06445C60.6689 4.83398 60.4593 3.85872 60.04 3.13867C59.6208 2.41406 59.0352 2.05176 58.2832 2.05176C57.5312 2.05176 56.9434 2.41406 56.5195 3.13867C56.0957 3.86328 55.8838 4.83626 55.8838 6.05762C55.8838 7.30632 56.0934 8.29069 56.5127 9.01074ZM65.7002 11V2.44141H65.6729L63.0615 4.32129V3.02246L65.6865 1.13574H66.8896V11H65.7002ZM72.5293 11.1641C71.6908 11.1641 70.973 10.9316 70.376 10.4668C69.779 10.002 69.4053 9.38216 69.2549 8.60742H70.5059C70.638 9.05404 70.8887 9.41406 71.2578 9.6875C71.627 9.95638 72.0553 10.0908 72.543 10.0908C73.3633 10.0908 73.999 9.73535 74.4502 9.02441C74.9059 8.30892 75.1429 7.29492 75.1611 5.98242H75.1543H75.1406C74.931 6.47005 74.5755 6.86198 74.0742 7.1582C73.5775 7.44987 73.0146 7.5957 72.3857 7.5957C71.4469 7.5957 70.6654 7.28581 70.041 6.66602C69.4212 6.04622 69.1113 5.26921 69.1113 4.33496C69.1113 3.3597 69.4395 2.55534 70.0957 1.92188C70.7565 1.28385 71.5928 0.964844 72.6045 0.964844C73.3473 0.964844 74.0013 1.15853 74.5664 1.5459C75.1315 1.92871 75.5645 2.47331 75.8652 3.17969C76.1888 3.92708 76.3506 4.83398 76.3506 5.90039C76.3506 7.5638 76.0156 8.85807 75.3457 9.7832C74.6758 10.7038 73.737 11.1641 72.5293 11.1641ZM72.5977 6.51562C73.2493 6.51562 73.7917 6.30827 74.2246 5.89355C74.6576 5.47884 74.874 4.95703 74.874 4.32812C74.874 3.69466 74.6553 3.16146 74.2178 2.72852C73.7848 2.29102 73.2516 2.07227 72.6182 2.07227C71.9847 2.07227 71.4492 2.28874 71.0117 2.72168C70.5742 3.15007 70.3555 3.67415 70.3555 4.29395C70.3555 4.93652 70.5674 5.46745 70.9912 5.88672C71.415 6.30599 71.9505 6.51562 72.5977 6.51562Z" fill="black" fill-opacity="0.25"/>
</svg>
