<svg width="134" height="106" viewBox="0 0 134 106" fill="none" xmlns="http://www.w3.org/2000/svg">
<g clip-path="url(#clip0_390_1427)">
<path d="M69.4669 10.1509C70.3496 15.9691 67.9001 21.1672 67.9001 21.1672C67.9001 21.1672 64.013 16.9327 63.1303 11.1132C62.2477 5.29365 64.6972 0.0969238 64.6972 0.0969238C64.6972 0.0969238 68.5843 4.33003 69.4669 10.1509Z" fill="#1B63A9"/>
<path d="M85.88 19.4216C89.0829 19.3863 91.6982 21.1046 91.6982 21.1046C91.6982 21.1046 89.1208 22.8791 85.9179 22.913C82.7149 22.947 80.0996 21.23 80.0996 21.23C80.0996 21.23 82.6771 19.4568 85.88 19.4216Z" fill="#1B63A9"/>
<path d="M76.8733 10.5766C73.8924 13.8526 73.2617 18.134 73.2617 18.134C73.2617 18.134 77.4635 17.1025 80.4431 13.8252C83.4227 10.5479 84.056 6.26904 84.056 6.26904C84.056 6.26904 79.8542 7.30055 76.8733 10.5766Z" fill="#0D3155"/>
<path opacity="0.1" d="M67.0681 105.34C103.99 105.34 133.92 103.966 133.92 102.271C133.92 100.577 103.99 99.2029 67.0681 99.2029C30.1466 99.2029 0.21582 100.577 0.21582 102.271C0.21582 103.966 30.1466 105.34 67.0681 105.34Z" fill="#1B63A9"/>
<path d="M27.4136 71.4295H47.0056V101.253H25.8849V71.4295H27.4136Z" fill="white" stroke="#AFC8E1" stroke-width="0.154572"/>
<path d="M42.8507 75.6505H30.0399C29.1862 75.6505 28.4941 76.3426 28.4941 77.1962V77.5427C28.4941 78.3964 29.1862 79.0884 30.0399 79.0884H42.8507C43.7043 79.0884 44.3964 78.3964 44.3964 77.5427V77.1962C44.3964 76.3426 43.7043 75.6505 42.8507 75.6505Z" fill="#1B63A9"/>
<path d="M42.999 83.3333H29.8896V83.5487H42.999V83.3333Z" fill="#AFC8E1"/>
<path d="M42.999 84.5151H29.8896V84.7306H42.999V84.5151Z" fill="#AFC8E1"/>
<path d="M42.999 85.6968H29.8896V85.9122H42.999V85.6968Z" fill="#AFC8E1"/>
<path d="M42.999 86.8783H29.8896V87.0937H42.999V86.8783Z" fill="#AFC8E1"/>
<path d="M42.999 88.0602H29.8896V88.2756H42.999V88.0602Z" fill="#AFC8E1"/>
<path d="M42.999 89.2429H29.8896V89.4584H42.999V89.2429Z" fill="#AFC8E1"/>
<path d="M42.999 90.4246H29.8896V90.64H42.999V90.4246Z" fill="#AFC8E1"/>
<path d="M42.999 91.6063H29.8896V91.8218H42.999V91.6063Z" fill="#AFC8E1"/>
<path d="M42.999 92.7878H29.8896V93.0033H42.999V92.7878Z" fill="#AFC8E1"/>
<path d="M42.999 93.9696H29.8896V94.185H42.999V93.9696Z" fill="#AFC8E1"/>
<path d="M42.999 95.1527H29.8896V95.3681H42.999V95.1527Z" fill="#AFC8E1"/>
<path d="M58.0357 71.4295H77.6276V101.253H56.507V71.4295H58.0357Z" fill="white" stroke="#AFC8E1" stroke-width="0.154572"/>
<path d="M73.4727 75.6505H60.6619C59.8083 75.6505 59.1162 76.3426 59.1162 77.1962V77.5427C59.1162 78.3964 59.8083 79.0884 60.6619 79.0884H73.4727C74.3264 79.0884 75.0184 78.3964 75.0184 77.5427V77.1962C75.0184 76.3426 74.3264 75.6505 73.4727 75.6505Z" fill="#1B63A9"/>
<path d="M73.623 83.3333H60.5137V83.5487H73.623V83.3333Z" fill="#AFC8E1"/>
<path d="M73.623 84.5151H60.5137V84.7306H73.623V84.5151Z" fill="#AFC8E1"/>
<path d="M73.623 85.6968H60.5137V85.9122H73.623V85.6968Z" fill="#AFC8E1"/>
<path d="M73.623 86.8783H60.5137V87.0937H73.623V86.8783Z" fill="#AFC8E1"/>
<path d="M73.623 88.0602H60.5137V88.2756H73.623V88.0602Z" fill="#AFC8E1"/>
<path d="M73.623 89.2429H60.5137V89.4584H73.623V89.2429Z" fill="#AFC8E1"/>
<path d="M73.623 90.4246H60.5137V90.64H73.623V90.4246Z" fill="#AFC8E1"/>
<path d="M73.623 91.6063H60.5137V91.8218H73.623V91.6063Z" fill="#AFC8E1"/>
<path d="M73.623 92.7878H60.5137V93.0033H73.623V92.7878Z" fill="#AFC8E1"/>
<path d="M73.623 93.9696H60.5137V94.185H73.623V93.9696Z" fill="#AFC8E1"/>
<path d="M73.623 95.1527H60.5137V95.3681H73.623V95.1527Z" fill="#AFC8E1"/>
<path d="M88.6597 71.4295H108.252V101.253H87.131V71.4295H88.6597Z" fill="white" stroke="#AFC8E1" stroke-width="0.154572"/>
<path d="M104.098 75.6505H91.2869C90.4333 75.6505 89.7412 76.3426 89.7412 77.1962V77.5427C89.7412 78.3964 90.4333 79.0884 91.2869 79.0884H104.098C104.951 79.0884 105.643 78.3964 105.643 77.5427V77.1962C105.643 76.3426 104.951 75.6505 104.098 75.6505Z" fill="#1B63A9"/>
<path d="M104.246 83.3333H91.1367V83.5487H104.246V83.3333Z" fill="#AFC8E1"/>
<path d="M104.246 84.5151H91.1367V84.7306H104.246V84.5151Z" fill="#AFC8E1"/>
<path d="M104.246 85.6968H91.1367V85.9122H104.246V85.6968Z" fill="#AFC8E1"/>
<path d="M104.246 86.8783H91.1367V87.0937H104.246V86.8783Z" fill="#AFC8E1"/>
<path d="M104.246 88.0602H91.1367V88.2756H104.246V88.0602Z" fill="#AFC8E1"/>
<path d="M104.246 89.2429H91.1367V89.4584H104.246V89.2429Z" fill="#AFC8E1"/>
<path d="M104.246 90.4246H91.1367V90.64H104.246V90.4246Z" fill="#AFC8E1"/>
<path d="M104.246 91.6063H91.1367V91.8218H104.246V91.6063Z" fill="#AFC8E1"/>
<path d="M104.246 92.7878H91.1367V93.0033H104.246V92.7878Z" fill="#AFC8E1"/>
<path d="M104.246 93.9696H91.1367V94.185H104.246V93.9696Z" fill="#AFC8E1"/>
<path d="M104.246 95.1527H91.1367V95.3681H104.246V95.1527Z" fill="#AFC8E1"/>
<path d="M67.0671 71.352V50.7218L36.4443 71.352" stroke="#AFC8E1" stroke-width="0.130571" stroke-miterlimit="10"/>
<path d="M97.6912 71.352L67.0684 50.7218" stroke="#AFC8E1" stroke-width="0.130571" stroke-miterlimit="10"/>
<g opacity="0.1">
<path opacity="0.1" d="M52.4343 11.5244H49.832V60.0968H84.3028V11.5244H52.4343Z" fill="#161C22"/>
</g>
<path d="M53.0242 12.5809H83.5305V59.0402H50.6037V12.5809H53.0242Z" fill="white" stroke="#AFC8E1" stroke-width="0.154572"/>
<path d="M77.8869 19.1865H56.2508C55.3971 19.1865 54.7051 19.8786 54.7051 20.7322V22.9877C54.7051 23.8414 55.3971 24.5334 56.2508 24.5334H77.8869C78.7406 24.5334 79.4326 23.8414 79.4326 22.9877V20.7322C79.4326 19.8786 78.7406 19.1865 77.8869 19.1865Z" fill="#1B63A9"/>
<path d="M77.2604 31.1323H56.877V31.4666H77.2604V31.1323Z" fill="#AFC8E1"/>
<path d="M77.2604 32.9695H56.877V33.3037H77.2604V32.9695Z" fill="#AFC8E1"/>
<path d="M77.2604 34.808H56.877V35.1422H77.2604V34.808Z" fill="#AFC8E1"/>
<path d="M77.2604 36.6449H56.877V36.9792H77.2604V36.6449Z" fill="#AFC8E1"/>
<path d="M77.2604 38.4835H56.877V38.8178H77.2604V38.4835Z" fill="#AFC8E1"/>
<path d="M77.2604 40.322H56.877V40.6563H77.2604V40.322Z" fill="#AFC8E1"/>
<path d="M77.2604 42.1592H56.877V42.4934H77.2604V42.1592Z" fill="#AFC8E1"/>
<path d="M77.2604 43.9976H56.877V44.3318H77.2604V43.9976Z" fill="#AFC8E1"/>
<path d="M77.2604 45.8346H56.877V46.1689H77.2604V45.8346Z" fill="#AFC8E1"/>
<path d="M77.2604 47.6731H56.877V48.0074H77.2604V47.6731Z" fill="#AFC8E1"/>
<path d="M77.2604 49.5103H56.877V49.8445H77.2604V49.5103Z" fill="#AFC8E1"/>
<path d="M108.346 87.7097C108.346 94.2696 112.461 99.5786 117.547 99.5786L108.346 87.7097Z" fill="#0D3155"/>
<path d="M117.545 99.5798C117.545 92.9455 122.138 87.5778 127.814 87.5778L117.545 99.5798Z" fill="#1B63A9"/>
<path d="M111.681 88.3053C111.681 94.5374 114.305 99.5801 117.547 99.5801L111.681 88.3053Z" fill="#1B63A9"/>
<path d="M117.545 99.58C117.545 91.1034 122.854 84.2432 129.414 84.2432L117.545 99.58Z" fill="#0D3155"/>
<path opacity="0.1" d="M117.148 101.847C118.411 101.847 119.436 101.674 119.436 101.46C119.436 101.247 118.411 101.074 117.148 101.074C115.885 101.074 114.86 101.247 114.86 101.46C114.86 101.674 115.885 101.847 117.148 101.847Z" fill="#1B63A9"/>
<path d="M115.611 99.6636C115.611 99.6636 116.917 99.6232 117.309 99.3437C117.7 99.0643 119.316 98.7288 119.414 99.1779C119.511 99.6271 121.372 101.412 119.901 101.424C118.429 101.435 116.477 101.194 116.085 100.955C115.694 100.716 115.611 99.6636 115.611 99.6636Z" fill="#768595"/>
<path opacity="0.2" d="M119.928 101.267C118.455 101.279 116.506 101.037 116.113 100.798C115.814 100.617 115.695 99.9628 115.654 99.6625H115.611C115.611 99.6625 115.694 100.715 116.087 100.954C116.48 101.193 118.429 101.434 119.902 101.423C120.328 101.423 120.474 101.267 120.466 101.044C120.407 101.18 120.245 101.265 119.928 101.267Z" fill="#161C22"/>
<path d="M10.1387 96.5757C10.1387 99.2737 11.8314 101.457 13.9231 101.457L10.1387 96.5757Z" fill="#0D3155"/>
<path d="M13.9229 101.458C13.9229 98.7292 15.8121 96.5215 18.1465 96.5215L13.9229 101.458Z" fill="#1B63A9"/>
<path d="M11.5088 96.8206C11.5088 99.3838 12.5882 101.458 13.9216 101.458L11.5088 96.8206Z" fill="#1B63A9"/>
<path d="M13.9229 101.458C13.9229 97.9714 16.1064 95.1499 18.8044 95.1499L13.9229 101.458Z" fill="#0D3155"/>
<path opacity="0.1" d="M13.7592 102.39C14.2789 102.39 14.7001 102.319 14.7001 102.231C14.7001 102.143 14.2789 102.072 13.7592 102.072C13.2396 102.072 12.8184 102.143 12.8184 102.231C12.8184 102.319 13.2396 102.39 13.7592 102.39Z" fill="#1B63A9"/>
<path d="M13.1279 101.492C13.1279 101.492 13.665 101.476 13.8261 101.361C13.9872 101.246 14.6515 101.108 14.6917 101.292C14.732 101.477 15.4973 102.211 14.8921 102.216C14.2868 102.221 13.484 102.122 13.3229 102.023C13.1618 101.925 13.1279 101.492 13.1279 101.492Z" fill="#768595"/>
<path opacity="0.2" d="M14.9033 102.152C14.2976 102.157 13.4958 102.057 13.3341 101.959C13.2112 101.884 13.1623 101.615 13.1456 101.492H13.1279C13.1279 101.492 13.1618 101.925 13.3234 102.023C13.485 102.121 14.2868 102.22 14.8926 102.216C15.0677 102.216 15.1278 102.152 15.1246 102.06C15.1004 102.116 15.0338 102.151 14.9033 102.152Z" fill="#161C22"/>
</g>
<defs>
<clipPath id="clip0_390_1427">
<rect width="133.705" height="105.245" fill="white" transform="translate(0.21582 0.0943604)"/>
</clipPath>
</defs>
</svg>
